<svg width="100" height="100" viewBox="0 0 100 100" fill="none" xmlns="http://www.w3.org/2000/svg">
<path d="M55.9612 50L66.7655 39.1957C68.4115 37.5497 68.4115 34.8806 66.7655 33.2345C65.1194 31.5885 62.4503 31.5885 60.8043 33.2345L50 44.0388L39.1957 33.2345C37.5497 31.5885 34.8806 31.5885 33.2345 33.2345C31.5885 34.8806 31.5885 37.5497 33.2345 39.1957L44.0388 50L33.2345 60.8043C31.5885 62.4503 31.5885 65.1194 33.2345 66.7655C34.8806 68.4115 37.5497 68.4115 39.1957 66.7655L50 55.9612L60.8043 66.7655C62.4503 68.4115 65.1194 68.4115 66.7655 66.7655C68.4115 65.1194 68.4115 62.4503 66.7655 60.8043L55.9612 50Z" fill="white"/>
<path d="M50 100C22.43 100 0 77.57 0 50C0 22.43 22.43 0 50 0C77.57 0 100 22.43 100 50C100 77.57 77.57 100 50 100ZM50 7.767C26.713 7.767 7.767 26.713 7.767 50C7.767 73.288 26.713 92.233 50 92.233C73.288 92.233 92.233 73.288 92.233 50C92.233 26.713 73.288 7.767 50 7.767Z" fill="white"/>
</svg>
