<?xml version="1.0" encoding="UTF-8"?>
<svg fill-rule="evenodd" clip-rule="evenodd" stroke-linejoin="round" stroke-miterlimit="1.414" xmlns="http://www.w3.org/2000/svg" aria-labelledby="title" viewBox="0 0 32 32" preserveAspectRatio="xMidYMid meet" fill="currentColor" width="48" height="48" title="view-back"><title id="title">view-back</title><g><path d="M19.768,23.89c0.354,-0.424 0.296,-1.055 -0.128,-1.408c-1.645,-1.377 -5.465,-4.762 -6.774,-6.482c1.331,-1.749 5.1,-5.085 6.774,-6.482c0.424,-0.353 0.482,-0.984 0.128,-1.408c-0.353,-0.425 -0.984,-0.482 -1.409,-0.128c-1.839,1.532 -5.799,4.993 -7.2,6.964c-0.219,0.312 -0.409,0.664 -0.409,1.054c0,0.39 0.19,0.742 0.409,1.053c1.373,1.932 5.399,5.462 7.2,6.964l0.001,0.001c0.424,0.354 1.055,0.296 1.408,-0.128Z"></path></g></svg>
