<svg xmlns="http://www.w3.org/2000/svg" width="20" height="20" viewBox="0 0 100 100">
  <g fill="#fff" stroke="#fff" stroke-width="4">
    <path
      d="M 47 6 C 24.38001 6 6 24.38002 6 47 C 6 69.60902 24.36378 87.9821 46.96875 88 A 2.0002 2.0002 0 1 0 46.96875 84 C 26.524474 83.9838 10 67.44822 10 47 C 10 26.54178 26.54177 10 47 10 C 63.216087 10 76.988071 20.418564 82 34.90625 L 74 30.25 A 2.0020131 2.0020131 0 1 0 72 33.71875 L 84 40.71875 A 2.0002 2.0002 0 0 0 86.71875 40 L 93.71875 28 A 2.0002 2.0002 0 0 0 91.84375 24.96875 A 2.0002 2.0002 0 0 0 90.28125 25.96875 L 85.78125 33.65625 C 80.246812 17.550519 64.960073 6 47 6 z " />
  </g>
</svg>
