<?xml version="1.0" encoding="UTF-8"?>
<svg fill-rule="evenodd" clip-rule="evenodd" stroke-linejoin="round" stroke-miterlimit="1.414" xmlns="http://www.w3.org/2000/svg" aria-labelledby="title" viewBox="0 0 32 32" preserveAspectRatio="xMidYMid meet" fill="currentColor" width="48" height="48" title="view-close"><title id="title">view-close</title><g><path d="M11.121,9.707c-0.39,-0.391 -1.024,-0.391 -1.414,0c-0.391,0.39 -0.391,1.024 0,1.414l4.95,4.95l-4.95,4.95c-0.391,0.39 -0.391,1.023 0,1.414c0.39,0.39 1.024,0.39 1.414,0l4.95,-4.95l4.95,4.95c0.39,0.39 1.023,0.39 1.414,0c0.39,-0.391 0.39,-1.024 0,-1.414l-4.95,-4.95l4.95,-4.95c0.39,-0.39 0.39,-1.024 0,-1.414c-0.391,-0.391 -1.024,-0.391 -1.414,0l-4.95,4.95l-4.95,-4.95Z"></path></g></svg>
