<svg width="40" height="40" viewBox="0 0 40 40" fill="none" xmlns="http://www.w3.org/2000/svg">
<path d="M31.4231 30.2431C31.5796 30.3996 31.6675 30.6118 31.6675 30.8331C31.6675 31.0544 31.5796 31.2666 31.4231 31.4231C31.2666 31.5796 31.0544 31.6675 30.8331 31.6675C30.6118 31.6675 30.3996 31.5796 30.2431 31.4231L19.9998 21.1781L9.75642 31.4231C9.59994 31.5796 9.38771 31.6675 9.16642 31.6675C8.94512 31.6675 8.7329 31.5796 8.57642 31.4231C8.41994 31.2666 8.33203 31.0544 8.33203 30.8331C8.33203 30.6118 8.41994 30.3996 8.57642 30.2431L18.8214 19.9998L8.57642 9.75642C8.41994 9.59994 8.33203 9.38771 8.33203 9.16642C8.33203 8.94512 8.41994 8.7329 8.57642 8.57642C8.7329 8.41994 8.94512 8.33203 9.16642 8.33203C9.38771 8.33203 9.59994 8.41994 9.75642 8.57642L19.9998 18.8214L30.2431 8.57642C30.3996 8.41994 30.6118 8.33203 30.8331 8.33203C31.0544 8.33203 31.2666 8.41994 31.4231 8.57642C31.5796 8.7329 31.6675 8.94512 31.6675 9.16642C31.6675 9.38771 31.5796 9.59994 31.4231 9.75642L21.1781 19.9998L31.4231 30.2431Z" fill="#141414"/>
</svg>
