<svg width="48" height="50" viewBox="0 0 48 50" fill="none" xmlns="http://www.w3.org/2000/svg">
<g filter="url(#filter0_d)">
<circle cx="24" cy="23" r="20" transform="rotate(-180 24 23)" fill="white"/>
<g filter="url(#filter1_d)">
<path d="M26.5 29.9999C26.4343 30 26.3692 29.9872 26.3084 29.9621C26.2477 29.9371 26.1925 29.9003 26.146 29.8539L19.146 22.8539C19.0994 22.8075 19.0625 22.7523 19.0373 22.6915C19.0121 22.6308 18.9991 22.5657 18.9991 22.4999C18.9991 22.4341 19.0121 22.369 19.0373 22.3083C19.0625 22.2475 19.0994 22.1923 19.146 22.1459L26.146 15.1459C26.2399 15.052 26.3672 14.9993 26.5 14.9993C26.6328 14.9993 26.7601 15.052 26.854 15.1459C26.9479 15.2398 27.0006 15.3671 27.0006 15.4999C27.0006 15.6327 26.9479 15.76 26.854 15.8539L20.207 22.4999L26.854 29.1459C26.9241 29.2158 26.9718 29.305 26.9912 29.4021C27.0106 29.4992 27.0007 29.5999 26.9628 29.6914C26.9248 29.7828 26.8606 29.861 26.7782 29.9159C26.6958 29.9708 26.599 30.0001 26.5 29.9999Z" fill="#0276B1"/>
</g>
</g>
<defs>
<filter id="filter0_d" x="0" y="0" width="48" height="48" filterUnits="userSpaceOnUse" color-interpolation-filters="sRGB">
<feFlood flood-opacity="0" result="BackgroundImageFix"/>
<feColorMatrix in="SourceAlpha" type="matrix" values="0 0 0 0 0 0 0 0 0 0 0 0 0 0 0 0 0 0 127 0"/>
<feOffset dy="1"/>
<feGaussianBlur stdDeviation="2"/>
<feColorMatrix type="matrix" values="0 0 0 0 0 0 0 0 0 0 0 0 0 0 0 0 0 0 0.2 0"/>
<feBlend mode="normal" in2="BackgroundImageFix" result="effect1_dropShadow"/>
<feBlend mode="normal" in="SourceGraphic" in2="effect1_dropShadow" result="shape"/>
</filter>
<filter id="filter1_d" x="-4" y="-1" width="56" height="56" filterUnits="userSpaceOnUse" color-interpolation-filters="sRGB">
<feFlood flood-opacity="0" result="BackgroundImageFix"/>
<feColorMatrix in="SourceAlpha" type="matrix" values="0 0 0 0 0 0 0 0 0 0 0 0 0 0 0 0 0 0 127 0"/>
<feOffset dy="4"/>
<feGaussianBlur stdDeviation="8"/>
<feColorMatrix type="matrix" values="0 0 0 0 0 0 0 0 0 0 0 0 0 0 0 0 0 0 0.2 0"/>
<feBlend mode="normal" in2="BackgroundImageFix" result="effect1_dropShadow"/>
<feBlend mode="normal" in="SourceGraphic" in2="effect1_dropShadow" result="shape"/>
</filter>
</defs>
</svg>
