<svg width="48" height="50" viewBox="0 0 48 50" fill="none" xmlns="http://www.w3.org/2000/svg">
<g filter="url(#filter0_d)">
<circle cx="24" cy="23" r="20" fill="white"/>
<g filter="url(#filter1_d)">
<path d="M21.5 29.9999C21.401 30.0001 21.3041 29.9708 21.2217 29.9159C21.1393 29.861 21.0751 29.7828 21.0372 29.6914C20.9993 29.5999 20.9894 29.4992 21.0087 29.4021C21.0281 29.305 21.0759 29.2158 21.146 29.1459L27.793 22.4999L21.146 15.8539C21.0521 15.76 20.9993 15.6327 20.9993 15.4999C20.9993 15.3671 21.0521 15.2398 21.146 15.1459C21.2399 15.052 21.3672 14.9993 21.5 14.9993C21.6328 14.9993 21.7601 15.052 21.854 15.1459L28.854 22.1459C28.9005 22.1923 28.9375 22.2475 28.9627 22.3083C28.9879 22.369 29.0009 22.4341 29.0009 22.4999C29.0009 22.5657 28.9879 22.6308 28.9627 22.6915C28.9375 22.7523 28.9005 22.8075 28.854 22.8539L21.854 29.8539C21.8075 29.9003 21.7523 29.9371 21.6915 29.9621C21.6308 29.9872 21.5657 30 21.5 29.9999Z" fill="#0276B1"/>
</g>
</g>
<defs>
<filter id="filter0_d" x="0" y="0" width="48" height="48" filterUnits="userSpaceOnUse" color-interpolation-filters="sRGB">
<feFlood flood-opacity="0" result="BackgroundImageFix"/>
<feColorMatrix in="SourceAlpha" type="matrix" values="0 0 0 0 0 0 0 0 0 0 0 0 0 0 0 0 0 0 127 0"/>
<feOffset dy="1"/>
<feGaussianBlur stdDeviation="2"/>
<feColorMatrix type="matrix" values="0 0 0 0 0 0 0 0 0 0 0 0 0 0 0 0 0 0 0.2 0"/>
<feBlend mode="normal" in2="BackgroundImageFix" result="effect1_dropShadow"/>
<feBlend mode="normal" in="SourceGraphic" in2="effect1_dropShadow" result="shape"/>
</filter>
<filter id="filter1_d" x="-4" y="-1" width="56" height="56" filterUnits="userSpaceOnUse" color-interpolation-filters="sRGB">
<feFlood flood-opacity="0" result="BackgroundImageFix"/>
<feColorMatrix in="SourceAlpha" type="matrix" values="0 0 0 0 0 0 0 0 0 0 0 0 0 0 0 0 0 0 127 0"/>
<feOffset dy="4"/>
<feGaussianBlur stdDeviation="8"/>
<feColorMatrix type="matrix" values="0 0 0 0 0 0 0 0 0 0 0 0 0 0 0 0 0 0 0.2 0"/>
<feBlend mode="normal" in2="BackgroundImageFix" result="effect1_dropShadow"/>
<feBlend mode="normal" in="SourceGraphic" in2="effect1_dropShadow" result="shape"/>
</filter>
</defs>
</svg>
