<?xml version="1.0" standalone="no"?>
<!DOCTYPE svg PUBLIC "-//W3C//DTD SVG 20010904//EN"
 "http://www.w3.org/TR/2001/REC-SVG-20010904/DTD/svg10.dtd">
<svg version="1.0" xmlns="http://www.w3.org/2000/svg"
 width="300.000000pt" height="300.000000pt" viewBox="0 0 300.000000 300.000000"
 preserveAspectRatio="xMidYMid meet">
<metadata>
Created by potrace 1.11, written by Peter Selinger 2001-2013
</metadata>
<g transform="translate(0.000000,300.000000) scale(0.100000,-0.100000)"
fill="#000000" stroke="none">
<path d="M188 2887 c-10 -22 -11 -2761 -2 -2806 4 -17 15 -36 26 -42 13 -7 90
-5 246 5 705 48 1379 48 2084 0 156 -10 233 -12 246 -5 11 6 22 25 26 42 10
53 7 2792 -4 2809 -6 10 -10 -478 -10 -1387 l0 -1403 -1300 0 -1300 0 -2 1403
c-2 771 -6 1394 -10 1384z"/>
<path d="M310 1670 l0 -1190 1190 0 1190 0 0 1190 0 1190 -1190 0 -1190 0 0
-1190z m1233 -342 c23 -7 60 -31 83 -53 90 -86 84 -231 -13 -313 l-45 -39 81
-162 81 -162 -97 3 -97 3 -55 137 -56 138 -37 0 -38 0 0 -140 0 -140 -85 0
-85 0 0 370 0 370 161 0 c99 0 178 -5 202 -12z m447 -358 l0 -370 -85 0 -85 0
0 370 0 370 85 0 85 0 0 -370z m340 65 l0 -305 145 0 145 0 0 -65 0 -65 -230
0 -230 0 0 370 0 370 85 0 85 0 0 -305z"/>
<path d="M1350 1115 l0 -115 51 0 c52 0 85 12 106 39 18 23 16 117 -3 146 -17
26 -68 45 -121 45 l-33 0 0 -115z"/>
</g>
</svg>
